# xmcd CD database file
#
# Track frame offsets:
#	150
#	41777
#	96115
#	161347
#	195985
#	247582
#	280945
#	298167
#	317302
#
# Disc length: 4570 seconds
#
# Revision: 0
# Processed by: cddbd v1.5.2PL0 Copyright (c) Steve Scherf et al.
# Submitted via: CDex 1.51
#
DISCID=6f11d809
DTITLE=Mal Waldron - Mal:Live 4 to 1
DYEAR=1971
DGENRE=Jazz
TTITLE0=Left Alone
TTITLE1=Rigth On
TTITLE2=Thoughts
TTITLE3=Little Abi
TTITLE4=Blood And Guts
TTITLE5=You Don't Known What Love Is
TTITLE6=Don't Explain
TTITLE7=Yesterdays
TTITLE8=All Alone
EXTD=YEAR: 1971
EXTT0=
EXTT1=
EXTT2=
EXTT3=
EXTT4=
EXTT5=
EXTT6=
EXTT7=
EXTT8=
PLAYORDER=
